/* XPM */
static char * bitcoin16_xpm[] = {
"16 16 81 1",
" 	c None",
".	c #A48C79",
"+	c #A28A77",
"@	c #A08875",
"#	c #9F8772",
"$	c #9C8773",
"%	c #9D8572",
"&	c #9A826F",
"*	c #99816E",
"=	c #95806B",
"-	c #947F6A",
";	c #927D68",
">	c #937C6B",
",	c #9F8A76",
"'	c #A08B77",
")	c #9D8874",
"!	c #9E8673",
"~	c #9D8570",
"{	c #99846D",
"]	c #9B8370",
"^	c #977F6C",
"/	c #927B67",
"(	c #8D7765",
"_	c #9E8975",
":	c #98836F",
"<	c #9B8672",
"[	c #98806D",
"}	c #937E69",
"|	c #917C67",
"1	c #907965",
"2	c #937C68",
"3	c #8F7A65",
"4	c #9C8471",
"5	c #97826E",
"6	c #96816C",
"7	c #98806A",
"8	c #8F7864",
"9	c #8C7762",
"0	c #977F69",
"a	c #907B66",
"b	c #8E7964",
"c	c #8C7561",
"d	c #8B7661",
"e	c #907B64",
"f	c #8D7863",
"g	c #89745F",
"h	c #8A7560",
"i	c #917B6A",
"j	c #907A68",
"k	c #927C6B",
"l	c #907967",
"m	c #8E7866",
"n	c #8B7563",
"o	c #88735E",
"p	c #87725D",
"q	c #86715C",
"r	c #927B6A",
"s	c #8C7563",
"t	c #8A7462",
"u	c #887260",
"v	c #86705E",
"w	c #856E5D",
"x	c #836C5B",
"y	c #8B7462",
"z	c #8C7664",
"A	c #87715F",
"B	c #846D5C",
"C	c #826B5A",
"D	c #816A59",
"E	c #7E6756",
"F	c #806958",
"G	c #897361",
"H	c #7F6857",
"I	c #7D6655",
"J	c #86705F",
"K	c #856E5E",
"L	c #7B6452",
"M	c #826B5B",
"N	c #846D5D",
"O	c #7C6553",
"P	c #7A6351",
"...+@##$%&*=-;;>",
",'@)!~{]&*^--//(",
",_:<]]{&^[}=|123",
"456:&57-=}3||189",
"%:556=0}}-abbbcd",
"&5==};ea3b3ffdg9",
"[}}-};aaab99h9gg",
"=||ijb3|999hd9gg",
"kkl((mn99gghgopq",
"rmmls((ttuuvuwvx",
"nntnyz(znwABwxBC",
"(zzmtuuABwvxDBEF",
"ztGGvwwwxDvwEFFE",
"AuvAvvBxDxFDDEHI",
"uJBwKBxDxDDDFEIL",
"xMxDNCBCFFHHOIPL"};
