/* XPM */
static char * bitcoin32_xpm[] = {
"32 32 773 2",
"  	c None",
". 	c #4F210F",
"+ 	c #421A0B",
"@ 	c #381104",
"# 	c #3D1306",
"$ 	c #4A1E0E",
"% 	c #5A2A0F",
"& 	c #662E19",
"* 	c #6D3520",
"= 	c #995A3C",
"- 	c #F4A378",
"; 	c #EF9D6E",
"> 	c #DF8E64",
", 	c #EC9B6F",
"' 	c #F3A374",
") 	c #CE7C5A",
"! 	c #974E36",
"~ 	c #7C3E23",
"{ 	c #65311A",
"] 	c #5B270F",
"^ 	c #57250A",
"/ 	c #5E2411",
"( 	c #5F270E",
"_ 	c #873F23",
": 	c #E98057",
"< 	c #FFBE92",
"[ 	c #FFB588",
"} 	c #FE9772",
"| 	c #E8825E",
"1 	c #EE8761",
"2 	c #DD7C5C",
"3 	c #713317",
"4 	c #5C280E",
"5 	c #471F0E",
"6 	c #371104",
"7 	c #3A1204",
"8 	c #4C210B",
"9 	c #5F2E16",
"0 	c #6C341F",
"a 	c #763D23",
"b 	c #C57855",
"c 	c #FDAE7B",
"d 	c #FFBD89",
"e 	c #FFBB8A",
"f 	c #F9A878",
"g 	c #BA6E4E",
"h 	c #7F3F25",
"i 	c #6B321F",
"j 	c #5A270F",
"k 	c #5B270D",
"l 	c #622813",
"m 	c #8B4327",
"n 	c #ED8B64",
"o 	c #FFECD0",
"p 	c #FFC69E",
"q 	c #FF9A75",
"r 	c #E47D59",
"s 	c #DC7A52",
"t 	c #EC8662",
"u 	c #8F452D",
"v 	c #61280C",
"w 	c #391806",
"x 	c #361103",
"y 	c #4B220E",
"z 	c #603019",
"A 	c #6A361D",
"B 	c #6C3822",
"C 	c #693821",
"D 	c #67331C",
"E 	c #5F2C15",
"F 	c #49200C",
"G 	c #6C3820",
"H 	c #CA835E",
"I 	c #FEB382",
"J 	c #FFBC85",
"K 	c #FFB782",
"L 	c #DA8A69",
"M 	c #8A4530",
"N 	c #682E1B",
"O 	c #58230C",
"P 	c #56220A",
"Q 	c #682B14",
"R 	c #8E462B",
"S 	c #E7865C",
"T 	c #FFE6CC",
"U 	c #FFF3D9",
"V 	c #FFB48A",
"W 	c #F58E68",
"X 	c #ED8660",
"Y 	c #FE986E",
"Z 	c #D97C52",
"` 	c #682A0E",
" .	c #391805",
"..	c #512412",
"+.	c #65321B",
"@.	c #663620",
"#.	c #6A3923",
"$.	c #69371D",
"%.	c #67341D",
"&.	c #65321C",
"*.	c #592B17",
"=.	c #421A09",
"-.	c #301306",
";.	c #3D1709",
">.	c #915534",
",.	c #FFBF90",
"'.	c #FFCE96",
").	c #DC8D68",
"!.	c #8B462E",
"~.	c #68341D",
"{.	c #5D2310",
"].	c #54210B",
"^.	c #542008",
"/.	c #692C13",
"(.	c #9C4F36",
"_.	c #E68257",
":.	c #FFB589",
"<.	c #FFE5BF",
"[.	c #FFC599",
"}.	c #FFAE83",
"|.	c #FFAC82",
"1.	c #FFBD8F",
"2.	c #FFB48C",
"3.	c #77361C",
"4.	c #532714",
"5.	c #602D17",
"6.	c #63331B",
"7.	c #61331C",
"8.	c #62321A",
"9.	c #602D18",
"0.	c #5F2C17",
"a.	c #602E14",
"b.	c #6A321C",
"c.	c #5B2918",
"d.	c #522412",
"e.	c #572914",
"f.	c #5D2912",
"g.	c #8C4E30",
"h.	c #FFC293",
"i.	c #CF825D",
"j.	c #87432B",
"k.	c #5F2B14",
"l.	c #59210B",
"m.	c #4F1F07",
"n.	c #55200B",
"o.	c #783720",
"p.	c #B66244",
"q.	c #F0875E",
"r.	c #FFA06E",
"s.	c #FFBB8D",
"t.	c #FFBD90",
"u.	c #FFC399",
"v.	c #FFCDA3",
"w.	c #FFE9C6",
"x.	c #FFDEB7",
"y.	c #864329",
"z.	c #572C14",
"A.	c #532D14",
"B.	c #5B3018",
"C.	c #582D18",
"D.	c #502812",
"E.	c #482110",
"F.	c #472210",
"G.	c #53280F",
"H.	c #5E2D17",
"I.	c #613119",
"J.	c #632E18",
"K.	c #603015",
"L.	c #915137",
"M.	c #AF6446",
"N.	c #7E3E24",
"O.	c #531F07",
"P.	c #612D17",
"Q.	c #954D2F",
"R.	c #D27652",
"S.	c #F08B61",
"T.	c #F29166",
"U.	c #EE9468",
"V.	c #F39369",
"W.	c #FB9A70",
"X.	c #FFB88B",
"Y.	c #FFE8C5",
"Z.	c #FFE2C1",
"`.	c #833E24",
" +	c #442310",
".+	c #4A2915",
"++	c #512915",
"@+	c #4E2810",
"#+	c #4B2315",
"$+	c #3D1E0E",
"%+	c #3A1A0A",
"&+	c #351B0C",
"*+	c #361A09",
"=+	c #3C1B07",
"-+	c #401B0B",
";+	c #421E0E",
">+	c #4D2411",
",+	c #5A2A13",
"'+	c #612B17",
")+	c #582A15",
"!+	c #56230C",
"~+	c #602C15",
"{+	c #6C321E",
"]+	c #87462D",
"^+	c #B76747",
"/+	c #C97252",
"(+	c #AC5D3D",
"_+	c #8D4F34",
":+	c #80482C",
"<+	c #894B2D",
"[+	c #B76345",
"}+	c #EF8965",
"|+	c #FFB98C",
"1+	c #FAAA82",
"2+	c #682B12",
"3+	c #3A1F0E",
"4+	c #41200C",
"5+	c #55311D",
"6+	c #4D2C19",
"7+	c #432312",
"8+	c #472212",
"9+	c #3B200F",
"0+	c #331B0B",
"a+	c #2D1408",
"b+	c #291004",
"c+	c #230A01",
"d+	c #240B02",
"e+	c #241003",
"f+	c #33190D",
"g+	c #36190E",
"h+	c #441F0F",
"i+	c #5F2C19",
"j+	c #8A4A33",
"k+	c #C77953",
"l+	c #C4724F",
"m+	c #8A442B",
"n+	c #3F1809",
"o+	c #371406",
"p+	c #713620",
"q+	c #C06946",
"r+	c #FA936E",
"s+	c #994F32",
"t+	c #582309",
"u+	c #3F2010",
"v+	c #472713",
"w+	c #4E2917",
"x+	c #452413",
"y+	c #482817",
"z+	c #4A2516",
"A+	c #381C0B",
"B+	c #351E0E",
"C+	c #2F1408",
"D+	c #2A1105",
"E+	c #1D0801",
"F+	c #200B02",
"G+	c #230E04",
"H+	c #220D04",
"I+	c #220D02",
"J+	c #2A1508",
"K+	c #451F09",
"L+	c #7D4028",
"M+	c #945339",
"N+	c #723721",
"O+	c #532511",
"P+	c #46210F",
"Q+	c #421E0B",
"R+	c #3E180A",
"S+	c #3D1505",
"T+	c #421907",
"U+	c #894B2F",
"V+	c #7B3D22",
"W+	c #57270E",
"X+	c #55220C",
"Y+	c #3C1C0C",
"Z+	c #391E0C",
"`+	c #422211",
" @	c #402410",
".@	c #341B07",
"+@	c #31180B",
"@@	c #2E1509",
"#@	c #2F1807",
"$@	c #241005",
"%@	c #230E01",
"&@	c #230E03",
"*@	c #1D0800",
"=@	c #200A03",
"-@	c #361707",
";@	c #3A1905",
">@	c #3E1909",
",@	c #361804",
"'@	c #321705",
")@	c #3C1703",
"!@	c #41190A",
"~@	c #3D1807",
"{@	c #401B08",
"]@	c #401F08",
"^@	c #441C0B",
"/@	c #512510",
"(@	c #512109",
"_@	c #3A1F0C",
":@	c #442415",
"<@	c #3A1E10",
"[@	c #311708",
"}@	c #2D1506",
"|@	c #341709",
"1@	c #381E0F",
"2@	c #321809",
"3@	c #2A1004",
"4@	c #291006",
"5@	c #1E0B02",
"6@	c #1F0A02",
"7@	c #331806",
"8@	c #361A07",
"9@	c #351506",
"0@	c #46210C",
"a@	c #381304",
"b@	c #401508",
"c@	c #3C1705",
"d@	c #431B0A",
"e@	c #46200B",
"f@	c #341A0B",
"g@	c #3C2110",
"h@	c #472817",
"i@	c #3F2312",
"j@	c #391F0E",
"k@	c #301909",
"l@	c #31170A",
"m@	c #2C1405",
"n@	c #260C02",
"o@	c #2B1206",
"p@	c #281306",
"q@	c #241204",
"r@	c #1E0702",
"s@	c #1B0601",
"t@	c #391909",
"u@	c #401F0B",
"v@	c #3E1E0C",
"w@	c #59361F",
"x@	c #58351D",
"y@	c #4D2517",
"z@	c #351404",
"A@	c #381704",
"B@	c #3B1A06",
"C@	c #442106",
"D@	c #4F2109",
"E@	c #371C0B",
"F@	c #3E2211",
"G@	c #3C210F",
"H@	c #492A19",
"I@	c #482918",
"J@	c #291409",
"K@	c #30170A",
"L@	c #2D1307",
"M@	c #261104",
"N@	c #180500",
"O@	c #251201",
"P@	c #321508",
"Q@	c #452010",
"R@	c #3D1E0C",
"S@	c #351904",
"T@	c #502A15",
"U@	c #5A371D",
"V@	c #361503",
"W@	c #371203",
"X@	c #3D1805",
"Y@	c #3B1A04",
"Z@	c #441E08",
"`@	c #3C2310",
" #	c #462515",
".#	c #321A0A",
"+#	c #301505",
"@#	c #33190A",
"##	c #2C1307",
"$#	c #210C03",
"%#	c #1A0601",
"&#	c #2C1204",
"*#	c #3D1C0B",
"=#	c #371904",
"-#	c #321703",
";#	c #391907",
">#	c #3E1E09",
",#	c #47200F",
"'#	c #532E1F",
")#	c #3A1907",
"!#	c #3B1A09",
"~#	c #381705",
"{#	c #381A05",
"]#	c #3F1A07",
"^#	c #321806",
"/#	c #452315",
"(#	c #422212",
"_#	c #371B08",
":#	c #2F1B07",
"<#	c #271205",
"[#	c #290E04",
"}#	c #250C02",
"|#	c #200B01",
"1#	c #2F1404",
"2#	c #311504",
"3#	c #3C1C0B",
"4#	c #42210D",
"5#	c #4A2511",
"6#	c #3C1508",
"7#	c #361505",
"8#	c #351505",
"9#	c #422410",
"0#	c #502B19",
"a#	c #402110",
"b#	c #32150A",
"c#	c #331907",
"d#	c #250D01",
"e#	c #1F0D02",
"f#	c #260E01",
"g#	c #381C07",
"h#	c #4F2914",
"i#	c #441F09",
"j#	c #441F0C",
"k#	c #361A05",
"l#	c #331804",
"m#	c #180300",
"n#	c #432112",
"o#	c #3E1F0F",
"p#	c #3F200F",
"q#	c #381B0E",
"r#	c #2F1406",
"s#	c #270E04",
"t#	c #260D04",
"u#	c #1F0A01",
"v#	c #280D02",
"w#	c #2A1003",
"x#	c #532D19",
"y#	c #653E25",
"z#	c #5E3820",
"A#	c #4F2912",
"B#	c #311803",
"C#	c #230702",
"D#	c #5B3320",
"E#	c #5F3C22",
"F#	c #653B26",
"G#	c #59331F",
"H#	c #512A19",
"I#	c #391E0B",
"J#	c #210B04",
"K#	c #2A1203",
"L#	c #381C0A",
"M#	c #482814",
"N#	c #3C1E08",
"O#	c #43220E",
"P#	c #4E2B13",
"Q#	c #785136",
"R#	c #6D462D",
"S#	c #5F3820",
"T#	c #4A270E",
"U#	c #331902",
"V#	c #200800",
"W#	c #3A1A09",
"X#	c #663928",
"Y#	c #633823",
"Z#	c #6B4F34",
"`#	c #6B4C31",
" $	c #6C462E",
".$	c #7F5E43",
"+$	c #57311A",
"@$	c #4A2110",
"#$	c #451E0F",
"$$	c #451B0F",
"%$	c #361705",
"&$	c #271002",
"*$	c #281103",
"=$	c #2A0E01",
"-$	c #391E08",
";$	c #5B381E",
">$	c #724D2E",
",$	c #7B5439",
"'$	c #785138",
")$	c #6E482C",
"!$	c #644025",
"~$	c #59331A",
"{$	c #3D1F07",
"]$	c #5B2D17",
"^$	c #472114",
"/$	c #411C0C",
"($	c #2F0C01",
"_$	c #270700",
":$	c #401F0E",
"<$	c #68422C",
"[$	c #6C4D31",
"}$	c #725436",
"|$	c #8A694F",
"1$	c #603E22",
"2$	c #553016",
"3$	c #532A14",
"4$	c #522711",
"5$	c #451E0C",
"6$	c #3F1A0A",
"7$	c #3C1707",
"8$	c #371806",
"9$	c #5A341D",
"0$	c #633F24",
"a$	c #744F30",
"b$	c #775035",
"c$	c #6D492C",
"d$	c #6E4A2D",
"e$	c #69442A",
"f$	c #4C2910",
"g$	c #62321B",
"h$	c #4A2211",
"i$	c #45200D",
"j$	c #230B00",
"k$	c #331304",
"l$	c #63442C",
"m$	c #705439",
"n$	c #634123",
"o$	c #5C3B1E",
"p$	c #6E4D2F",
"q$	c #6F5130",
"r$	c #624021",
"s$	c #5A3319",
"t$	c #532D17",
"u$	c #633C1F",
"v$	c #815C3D",
"w$	c #764F34",
"x$	c #795539",
"y$	c #6F4B2E",
"z$	c #886544",
"A$	c #5E391E",
"B$	c #43220C",
"C$	c #5A2C18",
"D$	c #492412",
"E$	c #502316",
"F$	c #3F1C10",
"G$	c #2D1003",
"H$	c #260800",
"I$	c #3B190A",
"J$	c #572E19",
"K$	c #5B351C",
"L$	c #5E3D21",
"M$	c #613F20",
"N$	c #745635",
"O$	c #735534",
"P$	c #6F512D",
"Q$	c #6B4627",
"R$	c #60351C",
"S$	c #4C2310",
"T$	c #48230E",
"U$	c #3F210C",
"V$	c #462510",
"W$	c #6B4428",
"X$	c #856042",
"Y$	c #7F5B3C",
"Z$	c #694427",
"`$	c #8B6646",
" %	c #643320",
".%	c #64341D",
"+%	c #5A2C15",
"@%	c #562B13",
"#%	c #4F2711",
"$%	c #4C230D",
"%%	c #341407",
"&%	c #2B1001",
"*%	c #280B01",
"=%	c #331306",
"-%	c #714D2E",
";%	c #6A4928",
">%	c #664927",
",%	c #5A2E16",
"'%	c #562A18",
")%	c #522B12",
"!%	c #4D2712",
"~%	c #4D270F",
"{%	c #5D381D",
"]%	c #5B3417",
"^%	c #5C3719",
"/%	c #2E1502",
"(%	c #5D3019",
"_%	c #663921",
":%	c #5D301B",
"<%	c #5F321E",
"[%	c #5E311A",
"}%	c #542712",
"|%	c #461E0C",
"1%	c #441B0A",
"2%	c #290C02",
"3%	c #260C01",
"4%	c #250B01",
"5%	c #381205",
"6%	c #4A210D",
"7%	c #512A10",
"8%	c #572912",
"9%	c #3E1906",
"0%	c #54290F",
"a%	c #4D270D",
"b%	c #412009",
"c%	c #311102",
"d%	c #331202",
"e%	c #3F1806",
"f%	c #3E1904",
"g%	c #492309",
"h%	c #3F2006",
"i%	c #2E1503",
"j%	c #271001",
"k%	c #5B2B14",
"l%	c #62341D",
"m%	c #532812",
"n%	c #4E210F",
"o%	c #491C0C",
"p%	c #431A09",
"q%	c #481B08",
"r%	c #481A05",
"s%	c #411901",
"t%	c #401302",
"u%	c #3B1202",
"v%	c #401A05",
"w%	c #3F1A05",
"x%	c #3B1C07",
"y%	c #311301",
"z%	c #240A00",
"A%	c #250A00",
"B%	c #280C00",
"C%	c #2D0D01",
"D%	c #2B1201",
"E%	c #250D00",
"F%	c #1C0A00",
"G%	c #552A14",
"H%	c #63331C",
"I%	c #62361D",
"J%	c #5E311D",
"K%	c #502311",
"L%	c #4D200D",
"M%	c #471F0B",
"N%	c #471F08",
"O%	c #4F210C",
"P%	c #481C04",
"Q%	c #461906",
"R%	c #472109",
"S%	c #542910",
"T%	c #5F2E18",
"U%	c #53250E",
"V%	c #3D1C06",
"W%	c #341405",
"X%	c #341303",
"Y%	c #351401",
"Z%	c #3A1504",
"`%	c #351402",
" &	c #341502",
".&	c #200C00",
"+&	c #4A240D",
"@&	c #512913",
"#&	c #5E2C19",
"$&	c #592814",
"%&	c #4F2210",
"&&	c #4D1F09",
"*&	c #53210D",
"=&	c #4A1F08",
"-&	c #4A210B",
";&	c #4E200B",
">&	c #4D1B07",
",&	c #592512",
"'&	c #6B311A",
")&	c #8C4D2F",
"!&	c #B76D52",
"~&	c #A05E42",
"{&	c #68341B",
"]&	c #4E2510",
"^&	c #481C06",
"/&	c #451F07",
"(&	c #3E1802",
"_&	c #2A1001",
":&	c #240C01",
"<&	c #4C2312",
"[&	c #4A1E0B",
"}&	c #4B220C",
"|&	c #512415",
"1&	c #4E2515",
"2&	c #4B1F0C",
"3&	c #50220D",
"4&	c #4C1E08",
"5&	c #4A1C07",
"6&	c #4E2107",
"7&	c #5B290E",
"8&	c #783C21",
"9&	c #985537",
"0&	c #B06746",
"a&	c #AB6948",
"b&	c #BA7451",
"c&	c #8C5337",
"d&	c #54280E",
"e&	c #491E07",
"f&	c #451E04",
"g&	c #441C03",
"h&	c #401B06",
"i&	c #311700",
"j&	c #281101",
"k&	c #4D240E",
"l&	c #461E07",
"m&	c #461E09",
"n&	c #471A07",
"o&	c #4F230D",
"p&	c #52200C",
"q&	c #582810",
"r&	c #7B3E28",
"s&	c #9C563B",
"t&	c #B36C49",
"u&	c #E4936B",
"v&	c #F09F78",
"w&	c #A15F43",
"x&	c #461F05",
"y&	c #411C02",
"z&	c #471B03",
"A&	c #462006",
"B&	c #401C02",
"C&	c #2A1401",
"D&	c #532A17",
"E&	c #542913",
"F&	c #411907",
"G&	c #4D220C",
"H&	c #51230C",
"I&	c #51250D",
"J&	c #56250E",
"K&	c #683418",
"L&	c #8C5135",
"M&	c #9F5D41",
"N&	c #B76E4D",
"O&	c #DD8B67",
"P&	c #C27B5C",
"Q&	c #784527",
"R&	c #55240C",
"S&	c #491E05",
"T&	c #482107",
"U&	c #351B02",
"V&	c #301704",
"W&	c #5E3219",
"X&	c #60351D",
"Y&	c #562E15",
"Z&	c #451C08",
"`&	c #491C0A",
" *	c #50240E",
".*	c #502210",
"+*	c #54270F",
"@*	c #5D3115",
"#*	c #69351C",
"$*	c #8B4E34",
"%*	c #9B5C3E",
"&*	c #9F6040",
"**	c #AE714C",
"=*	c #975C40",
"-*	c #75432A",
";*	c #5A2A12",
">*	c #502309",
",*	c #4B2308",
"'*	c #452004",
")*	c #3E1A03",
"!*	c #5E331B",
"~*	c #5F341C",
"{*	c #6B3F26",
"]*	c #6A3E25",
"^*	c #683B24",
"/*	c #50220A",
"(*	c #511F0E",
"_*	c #532C13",
":*	c #6A3E20",
"<*	c #764426",
"[*	c #874E31",
"}*	c #96573A",
"|*	c #9D6043",
"1*	c #AF7353",
"2*	c #865032",
"3*	c #714021",
"4*	c #6C3D1F",
"5*	c #51250C",
"6*	c #4B2006",
"7*	c #461F04",
"8*	c #5A3114",
". + @ # $ % & * = - ; > , ' ) ! ~ { ] ^ / ( _ : < [ } | 1 2 3 4 ",
"5 6 7 8 9 { { 0 a b c d e d f g h i j k / l m n o p q r s t u v ",
"w x y z A B C D E F G H I J K L M N ] O P Q R S T U V W X Y Z ` ",
" ...+.@.#.$.%.&.*.=.-.;.>.,.'.).!.~.{.].^./.(._.:.<.[.}.|.1.2.3.",
"4.5.6.7.8.9.0.a.b.c.d.e.f.g.h.i.j.k.l.m.n.o.p.q.r.s.t.u.v.w.x.y.",
"..z.A.B.C.D.E.F.G.H.I.5.J.K.L.M.N.f.O.].P.Q.R.S.T.U.V.W.X.Y.Z.`.",
" +.+++B.@+#+$+%+&+*+=+-+;+>+,+'+)+!+~+{+]+^+/+(+_+:+<+[+}+|+1+2+",
"3+4+5+6+7+8+9+0+a+b+c+d+e+a+f+g+h+i+j+k+l+m+J. +n+o+5 p+q+r+s+t+",
"u+v+w+x+y+z+A+B+C+D+E+F+G+e+H+I+J+K+L+M+N+O+P+Q+R+S+T+9.U+V+W+X+",
"Y+Z+`+ @Z+*+.@+@@@#@I+$@J+%@&@*@=@e+-@;@>@,@'@)@S+!@~@{@]@^@/@(@",
"*+_@:@<@[@}@|@g+1@2@3@4@a+I+H+5@6@&@7@8@9@7@;+0@a@b@c@=+d@=.e@X+",
"f@g@h@i@j@k@l@[@m@@@n@o@p@q@$@r@s@o@t@u@v@ +w@x@y@+ z@A@B@>@C@D@",
"E@F@G@H@I@j@o@#@J@K@C+L@M@e+H+=@N@O@P@Q@R@S@w+T@U@v+V@A@W@X@Y@Z@",
"E@9+`@ #F@.#}@2@o@2@+#@###&@$#E+%#e+&#*#=#-#;#>#,#'#)#!#~# .{#]#",
"^#/#(#g@_#-.:#}@L@l@a+<#[#}#H+H+$@|#[#1#2#3# +4#5# +{@6#~#7#{#8#",
"$#_@9#0#a#b#<@[@c#C+a+d#[#F+6@q@e#$#&@f#1#8#g#4#h#h#i#j#{@=+k#l#",
"m#d+n#w+o#p#$+q#A+@#P@r#s#D+e+t#H+u#v#w#'@Y+Y+4#x#y#z#A#@+;@g#B#",
"<#C#-.D#E#F#G#H#h+*#I#%+%+P@<#H+J#F+I+K#L#M#N#O#P#Q#R#S#R#T#]@U#",
" +r#V#W#X#Y#Z#`# $.$+$@$#$$$%$[@L@w#&$*$=${#-$0@;$>$,$'$)$!$~${$",
"]$^$/$($_$:$<$[$}$|$[$1$2$3$4$5$6$7$)#W#8$>#N#9$0$a$,$b$c$d$e$f$",
"g$4.h$i$;#j$k$z+l$m$[$n$o$p$q$r$s$/@d@3#:$v@-$t$u$v$w$x$y$z$A$B$",
"7.C$D$E$F$)#G$H$I$J$K$L$M$N$O$P$Q$R$S$T$4+;@U$V$W$X$b$Y$Z$`$!${$",
" %.%+%@%#%$%d@%%&%_$*%=%#$e$-%;%>%,%'%)%!%*#u@{#=+~%{%W$]%Q#^%/%",
"(%_%7.:%<%[%}%|%1%~#2%3%4%5%6%7%8%9%{@0%a%u@b%,@c%d%e%f%g%h%i%j%",
"k%g$g$l%l%l%+%m%n%8 o%p%Z@q%r%s%t%u%c@v%w%Y@x%y%&%z%A%B%C%D%E%F%",
"G%O+H.H%I%l%J%*.K%d.L%M%N%8 O%P%r%Q%v%R%S%T%U%V%W%X%Y%Z%`% &E%.&",
"@++&@&m%m%e.#&$&m%%&n%&&*&=&-&;&>&n%,&'&)&!&~&{&]&=&^&/&(&v%_&:&",
"@+S$<&[&M%6%}&>+4$|&1&y 2&3&4&;&5&6&7&8&9&0&a&b&c&d&e&f&g&h&i&j&",
"k&d@^@l&k&N%m&l&n&m&L%%&L%3&. o&(@p&q&r&s&t&u&v&w&q&x&y&z&A&B&C&",
"]&D&S$]&E&o&]&5 F&m&F 8 o&G&H&I&J&j K&L&M&N&O&P&Q&j R&S&T&x&U&V&",
",%m%z.W&X&Y&k&m&Z&M%`&G& *.*4&=&+*@*#*$*%*&***=*-*;*>*}&,*'*)*{$",
"!*~*{*]*^*B.G% *@&m&e&8 m%G./*(*_*:*<*[*}*|*1*2*3*4*5*6*6*7*A&8*"};
